<mxfile host="app.diagrams.net" modified="2020-12-16T11:10:37.196Z" agent="5.0 (Windows)" etag="rKc6-joLmBlbEqOJIAnh" version="14.0.3" type="github">
  <diagram id="1Q1EzocZoEp-LrVJWuE1" name="Page-1">
    <mxGraphModel dx="1422" dy="763" grid="1" gridSize="10" guides="1" tooltips="1" connect="1" arrows="1" fold="1" page="1" pageScale="1" pageWidth="827" pageHeight="1169" math="0" shadow="0">
      <root>
        <mxCell id="0" />
        <mxCell id="1" parent="0" />
        <mxCell id="NkwOou6ovOenbUR8SxcS-18" value="" style="rounded=0;whiteSpace=wrap;html=1;" parent="1" vertex="1">
          <mxGeometry x="270" y="30" width="510" height="740" as="geometry" />
        </mxCell>
        <mxCell id="UxCLgTN9e_x0eoLWRBKl-1" value="Utilisateur" style="shape=umlActor;verticalLabelPosition=bottom;verticalAlign=top;html=1;outlineConnect=0;" parent="1" vertex="1">
          <mxGeometry x="190" y="260" width="30" height="60" as="geometry" />
        </mxCell>
        <mxCell id="UxCLgTN9e_x0eoLWRBKl-9" value="Choisir le modèle" style="ellipse;whiteSpace=wrap;html=1;" parent="1" vertex="1">
          <mxGeometry x="420" y="530" width="140" height="70" as="geometry" />
        </mxCell>
        <mxCell id="UxCLgTN9e_x0eoLWRBKl-10" value="Lancer la simulation" style="ellipse;whiteSpace=wrap;html=1;" parent="1" vertex="1">
          <mxGeometry x="420" y="310" width="140" height="70" as="geometry" />
        </mxCell>
        <mxCell id="UxCLgTN9e_x0eoLWRBKl-11" value="Fin de la simulation" style="ellipse;whiteSpace=wrap;html=1;" parent="1" vertex="1">
          <mxGeometry x="420" y="190" width="140" height="70" as="geometry" />
        </mxCell>
        <mxCell id="UxCLgTN9e_x0eoLWRBKl-12" value="Voir les résultats" style="ellipse;whiteSpace=wrap;html=1;" parent="1" vertex="1">
          <mxGeometry x="420" y="70" width="140" height="70" as="geometry" />
        </mxCell>
        <mxCell id="UxCLgTN9e_x0eoLWRBKl-13" value="Simulateur SIR / SEIR / SEIR avec naissance" style="text;align=center;fontStyle=1;verticalAlign=middle;spacingLeft=3;spacingRight=3;strokeColor=none;rotatable=0;points=[[0,0.5],[1,0.5]];portConstraint=eastwest;" parent="1" vertex="1">
          <mxGeometry x="280" y="30" width="250" height="30" as="geometry" />
        </mxCell>
        <mxCell id="UxCLgTN9e_x0eoLWRBKl-19" value="Activer Spatialisation" style="ellipse;whiteSpace=wrap;html=1;" parent="1" vertex="1">
          <mxGeometry x="640" y="560" width="90" height="70" as="geometry" />
        </mxCell>
        <mxCell id="UxCLgTN9e_x0eoLWRBKl-20" value="Utilisation Politiques publiques" style="ellipse;whiteSpace=wrap;html=1;" parent="1" vertex="1">
          <mxGeometry x="695" y="680" width="70" height="70" as="geometry" />
        </mxCell>
        <mxCell id="NkwOou6ovOenbUR8SxcS-2" value="&amp;lt;&amp;lt;extend&amp;gt;&amp;gt;" style="edgeStyle=none;html=1;startArrow=open;endArrow=none;startSize=12;verticalAlign=bottom;dashed=1;labelBackgroundColor=none;entryX=0.5;entryY=1;entryDx=0;entryDy=0;exitX=0.5;exitY=0;exitDx=0;exitDy=0;" parent="1" edge="1" target="UxCLgTN9e_x0eoLWRBKl-11" source="UxCLgTN9e_x0eoLWRBKl-10">
          <mxGeometry x="0.2" y="30" width="160" relative="1" as="geometry">
            <mxPoint x="550" y="270" as="sourcePoint" />
            <mxPoint x="488" y="310" as="targetPoint" />
            <mxPoint as="offset" />
          </mxGeometry>
        </mxCell>
        <mxCell id="NkwOou6ovOenbUR8SxcS-11" value="SIR" style="ellipse;whiteSpace=wrap;html=1;" parent="1" vertex="1">
          <mxGeometry x="370" y="615.25" width="70" height="70" as="geometry" />
        </mxCell>
        <mxCell id="NkwOou6ovOenbUR8SxcS-12" value="SEIR" style="ellipse;whiteSpace=wrap;html=1;" parent="1" vertex="1">
          <mxGeometry x="456" y="660" width="70" height="70" as="geometry" />
        </mxCell>
        <mxCell id="NkwOou6ovOenbUR8SxcS-13" value="SEIR avec naissance" style="ellipse;whiteSpace=wrap;html=1;" parent="1" vertex="1">
          <mxGeometry x="550" y="630" width="70" height="70" as="geometry" />
        </mxCell>
        <mxCell id="NkwOou6ovOenbUR8SxcS-14" value="" style="endArrow=block;endSize=16;endFill=0;html=1;entryX=0.771;entryY=0.943;entryDx=0;entryDy=0;entryPerimeter=0;" parent="1" source="NkwOou6ovOenbUR8SxcS-13" target="UxCLgTN9e_x0eoLWRBKl-9" edge="1">
          <mxGeometry x="-0.75" y="70" width="160" relative="1" as="geometry">
            <mxPoint x="334" y="555.25" as="sourcePoint" />
            <mxPoint x="517.7487373415292" y="599.9987373415292" as="targetPoint" />
            <mxPoint as="offset" />
          </mxGeometry>
        </mxCell>
        <mxCell id="NkwOou6ovOenbUR8SxcS-15" value="" style="endArrow=block;endSize=16;endFill=0;html=1;exitX=0.5;exitY=0;exitDx=0;exitDy=0;" parent="1" source="NkwOou6ovOenbUR8SxcS-12" edge="1">
          <mxGeometry x="-0.75" y="70" width="160" relative="1" as="geometry">
            <mxPoint x="376" y="565.25" as="sourcePoint" />
            <mxPoint x="491" y="600" as="targetPoint" />
            <mxPoint as="offset" />
          </mxGeometry>
        </mxCell>
        <mxCell id="NkwOou6ovOenbUR8SxcS-16" value="" style="endArrow=block;endSize=16;endFill=0;html=1;exitX=1;exitY=0;exitDx=0;exitDy=0;entryX=0.279;entryY=0.957;entryDx=0;entryDy=0;entryPerimeter=0;" parent="1" source="NkwOou6ovOenbUR8SxcS-11" target="UxCLgTN9e_x0eoLWRBKl-9" edge="1">
          <mxGeometry x="-0.75" y="70" width="160" relative="1" as="geometry">
            <mxPoint x="404" y="615.25" as="sourcePoint" />
            <mxPoint x="468.25126265847075" y="599.9987373415292" as="targetPoint" />
            <mxPoint as="offset" />
          </mxGeometry>
        </mxCell>
        <mxCell id="NkwOou6ovOenbUR8SxcS-17" value="&amp;lt;&amp;lt;extend&amp;gt;&amp;gt;" style="edgeStyle=none;html=1;startArrow=open;endArrow=none;startSize=12;verticalAlign=bottom;dashed=1;labelBackgroundColor=none;entryX=0.5;entryY=1;entryDx=0;entryDy=0;exitX=0.5;exitY=0;exitDx=0;exitDy=0;" parent="1" edge="1" target="UxCLgTN9e_x0eoLWRBKl-12" source="UxCLgTN9e_x0eoLWRBKl-11">
          <mxGeometry x="0.2" y="30" width="160" relative="1" as="geometry">
            <mxPoint x="570" y="160" as="sourcePoint" />
            <mxPoint x="489.5" y="190" as="targetPoint" />
            <mxPoint as="offset" />
          </mxGeometry>
        </mxCell>
        <mxCell id="NkwOou6ovOenbUR8SxcS-21" value="" style="edgeStyle=none;html=1;endArrow=none;verticalAlign=bottom;" parent="1" target="UxCLgTN9e_x0eoLWRBKl-12" edge="1">
          <mxGeometry width="160" relative="1" as="geometry">
            <mxPoint x="220" y="290" as="sourcePoint" />
            <mxPoint x="470" y="390" as="targetPoint" />
          </mxGeometry>
        </mxCell>
        <mxCell id="CwcjvBSmdnNTdmmbHyCX-1" value="&amp;lt;&amp;lt;extend&amp;gt;&amp;gt;" style="edgeStyle=none;html=1;startArrow=open;endArrow=none;startSize=12;verticalAlign=bottom;dashed=1;labelBackgroundColor=none;entryX=0;entryY=0.5;entryDx=0;entryDy=0;exitX=1;exitY=0.5;exitDx=0;exitDy=0;" edge="1" parent="1" source="UxCLgTN9e_x0eoLWRBKl-9" target="UxCLgTN9e_x0eoLWRBKl-19">
          <mxGeometry x="0.2683" y="15" width="160" relative="1" as="geometry">
            <mxPoint x="610" y="550" as="sourcePoint" />
            <mxPoint x="660.5" y="540" as="targetPoint" />
            <mxPoint as="offset" />
          </mxGeometry>
        </mxCell>
        <mxCell id="CwcjvBSmdnNTdmmbHyCX-2" value="&amp;lt;&amp;lt;extend&amp;gt;&amp;gt;" style="edgeStyle=none;html=1;startArrow=open;endArrow=none;startSize=12;verticalAlign=bottom;dashed=1;labelBackgroundColor=none;exitX=0.689;exitY=1;exitDx=0;exitDy=0;exitPerimeter=0;" edge="1" parent="1" source="UxCLgTN9e_x0eoLWRBKl-19" target="UxCLgTN9e_x0eoLWRBKl-20">
          <mxGeometry x="0.2" y="30" width="160" relative="1" as="geometry">
            <mxPoint x="730" y="650" as="sourcePoint" />
            <mxPoint x="640" y="669.25" as="targetPoint" />
            <mxPoint as="offset" />
          </mxGeometry>
        </mxCell>
        <mxCell id="CwcjvBSmdnNTdmmbHyCX-3" value="&amp;lt;&amp;lt;include&amp;gt;&amp;gt;" style="edgeStyle=none;html=1;endArrow=open;verticalAlign=bottom;dashed=1;labelBackgroundColor=none;exitX=0.5;exitY=1;exitDx=0;exitDy=0;entryX=0.5;entryY=0;entryDx=0;entryDy=0;" edge="1" parent="1" source="UxCLgTN9e_x0eoLWRBKl-10" target="CwcjvBSmdnNTdmmbHyCX-5">
          <mxGeometry x="0.1342" y="41" width="160" relative="1" as="geometry">
            <mxPoint x="460" y="400" as="sourcePoint" />
            <mxPoint x="490" y="400" as="targetPoint" />
            <mxPoint as="offset" />
          </mxGeometry>
        </mxCell>
        <mxCell id="CwcjvBSmdnNTdmmbHyCX-4" value="" style="endArrow=none;html=1;entryX=0;entryY=0.5;entryDx=0;entryDy=0;" edge="1" parent="1" source="UxCLgTN9e_x0eoLWRBKl-1" target="UxCLgTN9e_x0eoLWRBKl-10">
          <mxGeometry width="50" height="50" relative="1" as="geometry">
            <mxPoint x="270" y="350" as="sourcePoint" />
            <mxPoint x="320" y="300" as="targetPoint" />
          </mxGeometry>
        </mxCell>
        <mxCell id="CwcjvBSmdnNTdmmbHyCX-5" value="Gérer les paramètres " style="ellipse;whiteSpace=wrap;html=1;" vertex="1" parent="1">
          <mxGeometry x="420" y="420" width="140" height="70" as="geometry" />
        </mxCell>
        <mxCell id="CwcjvBSmdnNTdmmbHyCX-6" value="" style="endArrow=block;endSize=16;endFill=0;html=1;entryX=0.5;entryY=1;entryDx=0;entryDy=0;" edge="1" parent="1" source="UxCLgTN9e_x0eoLWRBKl-9" target="CwcjvBSmdnNTdmmbHyCX-5">
          <mxGeometry x="-0.75" y="70" width="160" relative="1" as="geometry">
            <mxPoint x="340" y="550" as="sourcePoint" />
            <mxPoint x="340" y="490" as="targetPoint" />
            <mxPoint as="offset" />
          </mxGeometry>
        </mxCell>
        <mxCell id="CwcjvBSmdnNTdmmbHyCX-7" value="nombre de personne" style="ellipse;whiteSpace=wrap;html=1;" vertex="1" parent="1">
          <mxGeometry x="280" y="390" width="80" height="70" as="geometry" />
        </mxCell>
        <mxCell id="CwcjvBSmdnNTdmmbHyCX-8" value="nombre de malade initiale" style="ellipse;whiteSpace=wrap;html=1;" vertex="1" parent="1">
          <mxGeometry x="280" y="480" width="80" height="70" as="geometry" />
        </mxCell>
        <mxCell id="CwcjvBSmdnNTdmmbHyCX-9" value="Taux de contamination" style="ellipse;whiteSpace=wrap;html=1;" vertex="1" parent="1">
          <mxGeometry x="640" y="360" width="80" height="70" as="geometry" />
        </mxCell>
        <mxCell id="CwcjvBSmdnNTdmmbHyCX-10" value="&lt;div&gt;Taux de guérison/mortalité&lt;/div&gt;" style="ellipse;whiteSpace=wrap;html=1;" vertex="1" parent="1">
          <mxGeometry x="640" y="460" width="125" height="70" as="geometry" />
        </mxCell>
        <mxCell id="CwcjvBSmdnNTdmmbHyCX-12" value="" style="endArrow=block;endSize=16;endFill=0;html=1;entryX=0.007;entryY=0.643;entryDx=0;entryDy=0;entryPerimeter=0;exitX=0.988;exitY=0.386;exitDx=0;exitDy=0;exitPerimeter=0;" edge="1" parent="1" source="CwcjvBSmdnNTdmmbHyCX-8" target="CwcjvBSmdnNTdmmbHyCX-5">
          <mxGeometry x="-0.75" y="70" width="160" relative="1" as="geometry">
            <mxPoint x="250" y="670" as="sourcePoint" />
            <mxPoint x="329.05999999999995" y="596.99" as="targetPoint" />
            <mxPoint as="offset" />
            <Array as="points" />
          </mxGeometry>
        </mxCell>
        <mxCell id="CwcjvBSmdnNTdmmbHyCX-13" value="" style="endArrow=block;endSize=16;endFill=0;html=1;entryX=0;entryY=0.5;entryDx=0;entryDy=0;exitX=1;exitY=0.5;exitDx=0;exitDy=0;" edge="1" parent="1" source="CwcjvBSmdnNTdmmbHyCX-7" target="CwcjvBSmdnNTdmmbHyCX-5">
          <mxGeometry x="-0.75" y="70" width="160" relative="1" as="geometry">
            <mxPoint x="200.94" y="613.01" as="sourcePoint" />
            <mxPoint x="279.99999999999994" y="540" as="targetPoint" />
            <mxPoint as="offset" />
            <Array as="points" />
          </mxGeometry>
        </mxCell>
        <mxCell id="CwcjvBSmdnNTdmmbHyCX-15" value="" style="endArrow=block;endSize=16;endFill=0;html=1;entryX=1;entryY=0.5;entryDx=0;entryDy=0;exitX=0.025;exitY=0.714;exitDx=0;exitDy=0;exitPerimeter=0;" edge="1" parent="1" source="CwcjvBSmdnNTdmmbHyCX-9" target="CwcjvBSmdnNTdmmbHyCX-5">
          <mxGeometry x="-0.75" y="70" width="160" relative="1" as="geometry">
            <mxPoint x="570" y="493.01" as="sourcePoint" />
            <mxPoint x="649.06" y="420" as="targetPoint" />
            <mxPoint as="offset" />
            <Array as="points" />
          </mxGeometry>
        </mxCell>
        <mxCell id="CwcjvBSmdnNTdmmbHyCX-16" value="" style="endArrow=block;endSize=16;endFill=0;html=1;entryX=0.95;entryY=0.771;entryDx=0;entryDy=0;entryPerimeter=0;exitX=0;exitY=0.5;exitDx=0;exitDy=0;" edge="1" parent="1" source="CwcjvBSmdnNTdmmbHyCX-10" target="CwcjvBSmdnNTdmmbHyCX-5">
          <mxGeometry x="-0.75" y="70" width="160" relative="1" as="geometry">
            <mxPoint x="540.94" y="553.01" as="sourcePoint" />
            <mxPoint x="620" y="480" as="targetPoint" />
            <mxPoint as="offset" />
            <Array as="points" />
          </mxGeometry>
        </mxCell>
      </root>
    </mxGraphModel>
  </diagram>
</mxfile>
